<svg width="39" height="39" viewBox="0 0 39 39" xmlns="http://www.w3.org/2000/svg">
<g clip-path="url(#clip0_28956_11672)">
<path d="M7.7877 11.7012C7.1364 11.7324 6.33216 12.1468 5.87274 12.7295C5.45154 13.2318 5.09137 14.0476 5.18263 14.8136C5.91817 14.8775 6.6534 14.43 7.11282 13.8629C7.56522 13.2803 7.86415 12.4991 7.7877 11.7012ZM14.0399 13.2596V24.9596H15.8924V21.0596H18.4274C20.7541 21.0596 22.4249 19.4411 22.4249 17.1596C22.4249 14.8781 20.7847 13.2596 18.4883 13.2596H14.0399ZM15.8924 14.8196H18.0374C19.6341 14.8196 20.5724 15.6815 20.5724 17.1596C20.5724 18.6377 19.6419 19.4996 18.0374 19.4996H15.8924V14.8196ZM7.70239 15.2096C6.62989 15.2096 5.86315 15.7946 5.36239 15.7946C4.85383 15.7946 4.09489 15.2173 3.21739 15.2173C2.14489 15.2173 1.09451 15.8905 0.540713 16.8717C-0.597307 18.8334 0.245288 21.7375 1.34509 23.3341C1.88407 24.1251 2.53489 24.9596 3.41239 24.9596C4.21657 24.9292 4.48879 24.4721 5.45989 24.4721C6.43801 24.4721 6.72739 24.9596 7.60489 24.9596C8.48239 24.9596 9.01365 24.1555 9.55185 23.3646C10.1665 22.4676 10.4176 21.5932 10.4324 21.5471C10.4176 21.5323 8.73413 20.8859 8.71853 18.939C8.70371 17.3119 10.0455 16.5361 10.1064 16.4909C9.34744 15.3661 8.09239 15.2096 7.79989 15.2096H7.70239ZM26.6753 16.3796C24.7339 16.3796 23.2991 17.4681 23.246 18.9649H24.8913C25.0271 18.2536 25.7 17.7873 26.622 17.7873C27.7397 17.7873 28.3709 18.2992 28.3709 19.2407L28.3724 19.8896L26.0857 20.01C23.9633 20.1356 22.8149 20.9884 22.8149 22.4704C22.8149 23.9672 24.0007 24.9612 25.7003 24.9612C26.8484 24.9612 27.9139 24.3905 28.3968 23.4865H28.4349V24.8713H30.1259V19.1218C30.1266 17.4534 28.768 16.3796 26.6753 16.3796ZM30.8099 16.3796L33.936 24.92L33.7684 25.4395C33.486 26.3202 33.0289 26.6583 32.213 26.6583C32.0734 26.6583 31.8091 26.6442 31.6874 26.6293V28.037C31.8106 28.0643 32.2396 28.0796 32.3729 28.0796C34.1724 28.0796 35.0193 27.4026 35.7595 25.3481L38.9999 16.3796H37.1245L34.9506 23.3098H34.9125L32.7386 16.3796H30.8099ZM28.3724 21.0596L28.3663 21.7361C28.3663 22.8179 27.4295 23.5886 26.1908 23.5886C25.2166 23.5886 24.5973 23.1297 24.5973 22.4262C24.5973 21.7 25.1944 21.2775 26.3356 21.2105L28.3724 21.0596Z" fill="#268EC2"/>
</g>
<defs>
<clipPath id="clip0_28956_11672">
<rect width="39" height="39" fill="white"/>
</clipPath>
</defs>
</svg>
