<svg width="32" height="32" viewBox="0 0 32 32" fill="none" xmlns="http://www.w3.org/2000/svg">
<path d="M25.4267 6.57342V6.57342C20.2366 1.34952 11.7945 1.32205 6.57053 6.51206C2.68678 10.3706 1.55637 16.2111 3.71994 21.2401C3.8478 21.5051 3.88975 21.8034 3.83994 22.0934L2.66661 27.7334H2.66661C2.57478 28.1726 2.71007 28.6286 3.02661 28.9467H3.02661C3.28473 29.203 3.63634 29.3427 3.99994 29.3334H4.26661L9.97327 28.1867C10.2633 28.1519 10.5574 28.1932 10.8266 28.3067V28.3067C17.591 31.2169 25.4337 28.0924 28.3438 21.3281C30.5074 16.2991 29.377 10.4586 25.4932 6.60009L25.4267 6.57342ZM10.6667 17.3334C9.93028 17.3334 9.33333 16.7365 9.33333 16.0001C9.33333 15.2637 9.93028 14.6668 10.6667 14.6668C11.403 14.6668 12 15.2637 12 16.0001C12 16.7365 11.403 17.3334 10.6667 17.3334ZM16 17.3334C15.2636 17.3334 14.6667 16.7365 14.6667 16.0001C14.6667 15.2637 15.2636 14.6668 16 14.6668C16.7364 14.6668 17.3333 15.2637 17.3333 16.0001C17.3333 16.7365 16.7364 17.3334 16 17.3334ZM21.3333 17.3334C20.5969 17.3334 20 16.7365 20 16.0001C20 15.2637 20.5969 14.6668 21.3333 14.6668C22.0697 14.6668 22.6667 15.2637 22.6667 16.0001C22.6667 16.7365 22.0697 17.3334 21.3333 17.3334Z" fill="#6441A5"/>
</svg>
