<svg width="24" height="24" viewBox="0 0 24 24" fill="none" xmlns="http://www.w3.org/2000/svg">
<path fill-rule="evenodd" clip-rule="evenodd" d="M19.9988 12C19.9988 11.4477 20.4466 11 20.9988 11C21.5511 11 21.9988 11.4477 21.9988 12C21.9988 17.5228 17.5217 22 11.9988 22C9.37249 21.9939 6.85553 20.9475 4.99884 19.09C3.12454 17.2258 2.06465 14.6953 2.05092 12.0518C2.02223 6.52904 6.47607 2.02869 11.9988 2C12.7969 2.00331 13.592 2.09724 14.3688 2.28C14.4097 2.28725 14.4502 2.29704 14.4898 2.30931C15.0175 2.47251 15.3129 3.03253 15.1497 3.56015C14.9865 4.08778 14.4265 4.3832 13.8988 4.22C13.2754 4.07777 12.6383 4.004 11.9988 4C9.86857 3.99315 7.82513 4.84368 6.32884 6.36C4.83973 7.858 4.00347 9.88412 4.0025 11.9963C4.00048 16.4146 7.58056 19.998 11.9988 20C16.4171 20 19.9988 16.4183 19.9988 12ZM8.29019 11.29C8.68231 10.8979 9.31806 10.8979 9.71019 11.29L12.0002 13.54L18.2202 6.34C18.5794 5.96604 19.1648 5.92867 19.5687 6.25393C19.9988 6.60036 20.0666 7.22988 19.7202 7.66L12.7202 15.66C12.5376 15.8681 12.2769 15.9912 12.0002 16C11.7344 16.0015 11.4789 15.8972 11.2902 15.71L8.29018 12.71C7.89806 12.3179 7.89806 11.6821 8.29019 11.29Z" fill="#A1C353"/>
</svg>
