<svg width="55" height="70" viewBox="0 0 55 70" fill="none" xmlns="http://www.w3.org/2000/svg">
<path d="M44.912 68.9606C45.2039 69.1125 45.5441 69.1421 45.8578 69.0431C46.1716 68.9442 46.4332 68.7246 46.5851 68.4328L54.6014 53.0263C54.6793 52.8816 54.7277 52.7228 54.7438 52.5591C54.7598 52.3955 54.7431 52.2304 54.6948 52.0732C54.6464 51.9161 54.5673 51.7702 54.4621 51.6439C54.3568 51.5176 54.2275 51.4135 54.0817 51.3376C53.9358 51.2617 53.7764 51.2156 53.6126 51.2018C53.4487 51.1881 53.2838 51.2071 53.1274 51.2577C52.971 51.3082 52.8261 51.3894 52.7014 51.4964C52.5766 51.6035 52.4743 51.7342 52.4005 51.8811L45.7105 64.7385C44.1012 58.981 43.2081 52.6743 41.2033 46.8088C39.9736 43.2112 38.1817 39.8226 35.627 36.8389C42.0236 22.4398 35.4355 6.69557 23.2179 0.338468C23.0732 0.260528 22.9144 0.212139 22.7508 0.196106C22.5872 0.180072 22.422 0.196721 22.2649 0.245074C22.1077 0.293433 21.9618 0.37253 21.8355 0.477783C21.7092 0.583034 21.6051 0.712337 21.5292 0.858174C21.4533 1.00402 21.4072 1.16348 21.3935 1.32731C21.3798 1.49113 21.3987 1.65605 21.4493 1.81248C21.4999 1.96891 21.581 2.11372 21.6881 2.23851C21.7951 2.3633 21.9259 2.46558 22.0728 2.53939C32.846 8.14498 38.8445 21.8935 33.7188 34.8163C32.1838 33.3991 30.472 32.0809 28.3718 30.9881C15.9902 24.5456 5.52039 29.1019 2.52747 34.854C1.06275 37.669 0.567741 40.4804 1.32822 43.0273C2.08869 45.5742 4.0768 47.7131 7.08796 49.2799C12.0517 51.8626 18.0019 51.3692 23.2368 49.0299C27.8411 46.9724 31.8621 43.4291 34.4038 39.1057C36.3909 41.6293 37.788 44.489 38.855 47.6108C40.7442 53.1379 41.6349 59.3699 43.2974 65.3237L30.6507 58.7434C30.506 58.6654 30.3472 58.617 30.1836 58.601C30.02 58.585 29.8548 58.6016 29.6977 58.65C29.5405 58.6983 29.3946 58.7774 29.2683 58.8827C29.142 58.9879 29.0379 59.1172 28.962 59.2631C28.8861 59.4089 28.84 59.5684 28.8263 59.7322C28.8125 59.896 28.8315 60.0609 28.8821 60.2174C28.9327 60.3738 29.0138 60.5186 29.1209 60.6434C29.2279 60.7682 29.3586 60.8705 29.5055 60.9443L44.912 68.9606ZM8.23315 47.079C5.63306 45.7261 4.23961 44.106 3.70537 42.3168C3.17112 40.5276 3.4664 38.4246 4.72839 35.9992C6.8247 31.9703 15.7854 27.2359 27.2266 33.189C29.427 34.3339 31.1284 35.734 32.6394 37.2372C30.4381 41.3254 26.5973 44.8102 22.2254 46.7639C17.5114 48.8703 12.3548 49.2236 8.23315 47.079Z" fill="#8AB428"/>
</svg>
