<svg width="20" height="71" viewBox="0 0 20 71" fill="none" xmlns="http://www.w3.org/2000/svg">
<path d="M8.21576 68.9634C9.34054 66.3997 10.0155 63.571 10.7266 60.8673C11.4639 58.0643 12.0773 55.2292 12.6005 52.3784C13.6343 46.7451 14.2231 41.0259 14.4361 35.3045C14.8701 23.6478 13.5109 11.9008 10.3972 0.680201C10.1095 -0.356556 8.54689 0.135851 8.81898 1.17366C11.7025 12.1722 12.9902 23.5209 12.6298 34.9042C12.4489 40.6181 11.8056 46.3079 10.7728 51.9296C10.2766 54.6304 9.66831 57.3097 8.98026 59.9674C8.25439 62.7711 7.21657 65.4966 6.5225 68.3023C6.27517 69.3021 7.78652 69.9417 8.21576 68.9634Z" fill="#424242"/>
<path d="M7.74465 69.0862C10.2346 65.8434 12.8312 62.6647 15.289 59.3945C15.9701 58.8314 16.6662 58.2826 17.3938 57.7611C18.4695 56.99 17.3931 55.2471 16.2877 56.013C14.2068 57.4547 12.1319 58.9055 10.0604 60.3603C9.98321 60.4146 9.90626 60.4708 9.82959 60.5278C8.52804 57.1147 6.49129 54.0173 3.84665 51.4279C3.00012 50.599 1.68295 51.7237 2.27354 52.7023C5.17082 57.5034 6.34301 62.893 6.03887 68.443C5.9941 69.2599 7.23387 69.7514 7.74465 69.0862ZM8.08709 64.7597C8.17373 64.9266 8.28728 65.0573 8.41937 65.1511C8.31743 65.2775 8.21511 65.4034 8.11305 65.5296C8.10808 65.2728 8.09974 65.0162 8.08709 64.7597Z" fill="#424242"/>
</svg>
