<svg width="44" height="37" viewBox="0 0 44 37" fill="none" xmlns="http://www.w3.org/2000/svg">
<path d="M0.205322 5.64551L4.11393 36.3981L43.7947 31.3548L39.8861 0.602148L0.205322 5.64551ZM1.48382 6.6404L38.8971 1.88523L39.2658 4.78608L23.7006 18.9215C22.8131 19.7282 21.5222 19.8923 20.4589 19.3335L1.85252 9.54125L1.48382 6.6404ZM4.53531 7.98864C4.22309 8.02832 4.00096 8.31651 4.04082 8.63018C4.08069 8.94384 4.36785 9.1673 4.68007 9.12762C4.99229 9.08794 5.21442 8.79975 5.17456 8.48608C5.13469 8.17241 4.84753 7.94895 4.53531 7.98864ZM6.80278 7.70044C6.49056 7.74013 6.26843 8.02832 6.3083 8.34198C6.34816 8.65565 6.63532 8.87911 6.94755 8.83943C7.25977 8.79975 7.4819 8.51155 7.44203 8.19789C7.40217 7.88422 7.115 7.66076 6.80278 7.70044ZM9.07026 7.41225C8.75804 7.45193 8.5359 7.74013 8.57577 8.05379C8.61563 8.36746 8.9028 8.59092 9.21502 8.55124C9.52724 8.51155 9.74937 8.22336 9.70951 7.9097C9.66964 7.59603 9.38248 7.37257 9.07026 7.41225ZM11.3377 7.12406C11.0255 7.16374 10.8034 7.45193 10.8432 7.7656C10.8831 8.07927 11.1703 8.30273 11.4825 8.26304C11.7947 8.22336 12.0168 7.93517 11.977 7.6215C11.9371 7.30784 11.6499 7.08438 11.3377 7.12406ZM13.6052 6.83587C13.293 6.87555 13.0708 7.16374 13.1107 7.47741C13.1506 7.79107 13.4377 8.01454 13.75 7.97485C14.0622 7.93517 14.2843 7.64698 14.2445 7.33331C14.2046 7.01965 13.9174 6.79618 13.6052 6.83587ZM15.8727 6.54768C15.5605 6.58736 15.3383 6.87555 15.3782 7.18922C15.4181 7.50288 15.7052 7.72634 16.0174 7.68666C16.3297 7.64698 16.5518 7.35879 16.5119 7.04512C16.4721 6.73145 16.1849 6.50799 15.8727 6.54768ZM18.1401 6.25948C17.8279 6.29917 17.6058 6.58736 17.6457 6.90102C17.6855 7.21469 17.9727 7.43815 18.2849 7.39847C18.5971 7.35879 18.8193 7.07059 18.7794 6.75693C18.7395 6.44326 18.4524 6.2198 18.1401 6.25948ZM20.4076 5.97129C20.0954 6.01097 19.8733 6.29917 19.9131 6.61283C19.953 6.9265 20.2402 7.14996 20.5524 7.11028C20.8646 7.07059 21.0867 6.7824 21.0469 6.46874C21.007 6.15507 20.7198 5.93161 20.4076 5.97129ZM22.6751 5.6831C22.3629 5.72278 22.1407 6.01097 22.1806 6.32464C22.2205 6.63831 22.5076 6.86177 22.8199 6.82209C23.1321 6.7824 23.3542 6.49421 23.3143 6.18054C23.2745 5.86688 22.9873 5.64342 22.6751 5.6831ZM24.9426 5.39491C24.6303 5.43459 24.4082 5.72278 24.4481 6.03645C24.488 6.35011 24.7751 6.57358 25.0873 6.53389C25.3996 6.49421 25.6217 6.20602 25.5818 5.89235C25.542 5.57869 25.2548 5.35522 24.9426 5.39491ZM27.21 5.10672C26.8978 5.1464 26.6757 5.43459 26.7156 5.74826C26.7554 6.06192 27.0426 6.28538 27.3548 6.2457C27.667 6.20602 27.8892 5.91783 27.8493 5.60416C27.8094 5.29049 27.5223 5.06703 27.21 5.10672ZM29.4775 4.81852C29.1653 4.85821 28.9432 5.1464 28.983 5.46006C29.0229 5.77373 29.3101 5.99719 29.6223 5.95751C29.9345 5.91783 30.1566 5.62963 30.1168 5.31597C30.0769 5.0023 29.7897 4.77884 29.4775 4.81852ZM31.745 4.53033C31.4328 4.57001 31.2106 4.85821 31.2505 5.17187C31.2904 5.48554 31.5775 5.709 31.8898 5.66932C32.202 5.62963 32.4241 5.34144 32.3842 5.02778C32.3444 4.71411 32.0572 4.49065 31.745 4.53033ZM34.0125 4.24214C33.7002 4.28182 33.4781 4.57001 33.518 4.88368C33.5578 5.19735 33.845 5.42081 34.1572 5.38113C34.4694 5.34144 34.6916 5.05325 34.6517 4.73958C34.6118 4.42592 34.3247 4.20246 34.0125 4.24214ZM36.2799 3.95395C35.9677 3.99363 35.7456 4.28182 35.7855 4.59549C35.8253 4.90915 36.1125 5.13262 36.4247 5.09293C36.7369 5.05325 36.9591 4.76506 36.9192 4.45139C36.8793 4.13773 36.5922 3.91427 36.2799 3.95395ZM2.02895 10.9294L19.931 20.35C21.4119 21.1315 23.2274 20.8985 24.466 19.7736L39.4423 6.17422L42.5162 30.3599L5.1029 35.115L2.02895 10.9294ZM13.3522 18.4419C13.04 18.4815 12.8179 18.7697 12.8577 19.0834C12.8976 19.3971 13.1848 19.6205 13.497 19.5809C13.8092 19.5412 14.0313 19.253 13.9915 18.9393C13.9516 18.6256 13.6644 18.4022 13.3522 18.4419ZM30.3583 16.2804C30.0461 16.3201 29.8239 16.6083 29.8638 16.922C29.9037 17.2356 30.1908 17.4591 30.503 17.4194C30.8153 17.3797 31.0374 17.0915 30.9975 16.7779C30.9577 16.4642 30.6705 16.2407 30.3583 16.2804ZM11.8688 20.3665C11.5565 20.4062 11.3344 20.6944 11.3743 21.008C11.4141 21.3217 11.7013 21.5452 12.0135 21.5055C12.3258 21.4658 12.5479 21.1776 12.508 20.8639C12.4682 20.5503 12.181 20.3268 11.8688 20.3665ZM32.276 17.7728C31.9638 17.8124 31.7417 18.1006 31.7815 18.4143C31.8214 18.728 32.1086 18.9514 32.4208 18.9117C32.733 18.8721 32.9551 18.5839 32.9153 18.2702C32.8754 17.9565 32.5882 17.7331 32.276 17.7728ZM10.3853 22.2911C10.0731 22.3308 9.85095 22.619 9.89082 22.9327C9.93069 23.2463 10.2178 23.4698 10.5301 23.4301C10.8423 23.3904 11.0644 23.1022 11.0246 22.7886C10.9847 22.4749 10.6975 22.2514 10.3853 22.2911ZM34.1938 19.2651C33.8816 19.3048 33.6594 19.593 33.6993 19.9066C33.7392 20.2203 34.0263 20.4438 34.3385 20.4041C34.6508 20.3644 34.8729 20.0762 34.833 19.7625C34.7932 19.4489 34.506 19.2254 34.1938 19.2651ZM8.90185 24.2157C8.58963 24.2554 8.36749 24.5436 8.40736 24.8573C8.44723 25.1709 8.73439 25.3944 9.04661 25.3547C9.35883 25.315 9.58096 25.0268 9.5411 24.7132C9.50123 24.3995 9.21407 24.176 8.90185 24.2157ZM36.1115 20.7574C35.7993 20.7971 35.5772 21.0853 35.617 21.399C35.6569 21.7126 35.9441 21.9361 36.2563 21.8964C36.5685 21.8567 36.7906 21.5685 36.7508 21.2549C36.7109 20.9412 36.4237 20.7177 36.1115 20.7574ZM7.41839 26.1404C7.10617 26.18 6.88403 26.4682 6.9239 26.7819C6.96377 27.0956 7.25093 27.319 7.56315 27.2793C7.87537 27.2397 8.0975 26.9515 8.05764 26.6378C8.01777 26.3241 7.73061 26.1007 7.41839 26.1404ZM38.0293 22.2498C37.7171 22.2894 37.4949 22.5776 37.5348 22.8913C37.5747 23.205 37.8618 23.4284 38.174 23.3887C38.4863 23.3491 38.7084 23.0609 38.6685 22.7472C38.6287 22.4335 38.3415 22.2101 38.0293 22.2498ZM7.57533 31.9073C7.26311 31.947 7.04098 32.2352 7.08085 32.5489C7.12071 32.8625 7.40788 33.086 7.7201 33.0463C8.03232 33.0066 8.25445 32.7184 8.21458 32.4048C8.17472 32.0911 7.88755 31.8676 7.57533 31.9073ZM9.84281 31.6191C9.53059 31.6588 9.30845 31.947 9.34832 32.2607C9.38819 32.5743 9.67535 32.7978 9.98757 32.7581C10.2998 32.7184 10.5219 32.4303 10.4821 32.1166C10.4422 31.8029 10.155 31.5795 9.84281 31.6191ZM12.1103 31.3309C11.7981 31.3706 11.5759 31.6588 11.6158 31.9725C11.6557 32.2862 11.9428 32.5096 12.255 32.4699C12.5673 32.4303 12.7894 32.1421 12.7495 31.8284C12.7097 31.5147 12.4225 31.2913 12.1103 31.3309ZM14.3778 31.0428C14.0655 31.0824 13.8434 31.3706 13.8833 31.6843C13.9231 31.998 14.2103 32.2214 14.5225 32.1817C14.8347 32.1421 15.0569 31.8539 15.017 31.5402C14.9771 31.2265 14.69 31.0031 14.3778 31.0428ZM16.6452 30.7546C16.333 30.7942 16.1109 31.0824 16.1507 31.3961C16.1906 31.7098 16.4778 31.9332 16.79 31.8935C17.1022 31.8539 17.3243 31.5657 17.2845 31.252C17.2446 30.9383 16.9574 30.7149 16.6452 30.7546ZM18.9127 30.4664C18.6005 30.5061 18.3783 30.7942 18.4182 31.1079C18.4581 31.4216 18.7452 31.645 19.0575 31.6054C19.3697 31.5657 19.5918 31.2775 19.552 30.9638C19.5121 30.6502 19.2249 30.4267 18.9127 30.4664ZM21.1802 30.1782C20.868 30.2179 20.6458 30.5061 20.6857 30.8197C20.7256 31.1334 21.0127 31.3568 21.3249 31.3172C21.6372 31.2775 21.8593 30.9893 21.8194 30.6756C21.7796 30.362 21.4924 30.1385 21.1802 30.1782ZM23.4476 29.89C23.1354 29.9297 22.9133 30.2179 22.9532 30.5315C22.993 30.8452 23.2802 31.0687 23.5924 31.029C23.9046 30.9893 24.1268 30.7011 24.0869 30.3874C24.047 30.0738 23.7599 29.8503 23.4476 29.89ZM25.7151 29.6018C25.4029 29.6415 25.1808 29.9297 25.2206 30.2433C25.2605 30.557 25.5477 30.7805 25.8599 30.7408C26.1721 30.7011 26.3942 30.4129 26.3544 30.0992C26.3145 29.7856 26.0273 29.5621 25.7151 29.6018ZM27.9826 29.3136C27.6704 29.3533 27.4482 29.6415 27.4881 29.9551C27.528 30.2688 27.8151 30.4923 28.1274 30.4526C28.4396 30.4129 28.6617 30.1247 28.6218 29.811C28.582 29.4974 28.2948 29.2739 27.9826 29.3136ZM30.2501 29.0254C29.9378 29.0651 29.7157 29.3533 29.7556 29.667C29.7954 29.9806 30.0826 30.2041 30.3948 30.1644C30.7071 30.1247 30.9292 29.8365 30.8893 29.5229C30.8495 29.2092 30.5623 28.9857 30.2501 29.0254ZM32.5175 28.7372C32.2053 28.7769 31.9832 29.0651 32.0231 29.3788C32.0629 29.6924 32.3501 29.9159 32.6623 29.8762C32.9745 29.8365 33.1967 29.5483 33.1568 29.2347C33.1169 28.921 32.8298 28.6975 32.5175 28.7372ZM34.785 28.449C34.4728 28.4887 34.2507 28.7769 34.2905 29.0906C34.3304 29.4042 34.6176 29.6277 34.9298 29.588C35.242 29.5483 35.4641 29.2601 35.4243 28.9465C35.3844 28.6328 35.0972 28.4093 34.785 28.449ZM37.0525 28.1608C36.7403 28.2005 36.5181 28.4887 36.558 28.8024C36.5979 29.116 36.885 29.3395 37.1973 29.2998C37.5095 29.2601 37.7316 28.9719 37.6917 28.6583C37.6519 28.3446 37.3647 28.1212 37.0525 28.1608ZM39.32 27.8726C39.0077 27.9123 38.7856 28.2005 38.8255 28.5142C38.8653 28.8279 39.1525 29.0513 39.4647 29.0116C39.7769 28.9719 39.9991 28.6838 39.9592 28.3701C39.9193 28.0564 39.6322 27.833 39.32 27.8726Z" fill="#2280AF"/>
</svg>
