<svg width="40" height="29" viewBox="0 0 40 29" fill="none" xmlns="http://www.w3.org/2000/svg">
<path d="M4 0C1.80039 0 0 1.81289 0 4.02778V24.9722C0 27.1871 1.80039 29 4 29H36C38.1996 29 40 27.1871 40 24.9722V4.02778C40 1.81289 38.1996 0 36 0H4ZM4 1.61111H36C37.3348 1.61111 38.4 2.68372 38.4 4.02778V24.9722C38.4 26.3163 37.3348 27.3889 36 27.3889H4C2.66521 27.3889 1.6 26.3163 1.6 24.9722V4.02778C1.6 2.68372 2.66521 1.61111 4 1.61111ZM6.4 10.4722C5.516 10.4722 4.8 11.1932 4.8 12.0833H6.4V10.4722ZM7.2 10.4722V13.6944H9.6V10.4722H7.2ZM10.4 10.4722V12.0833H12C12 11.1932 11.284 10.4722 10.4 10.4722ZM4.8 12.8889V14.5C4.8 15.3901 5.516 16.1111 6.4 16.1111V12.8889H4.8ZM10.4 12.8889V16.1111C11.284 16.1111 12 15.3901 12 14.5V12.8889H10.4ZM7.2 14.5V16.1111H9.6V14.5H7.2ZM5.6 21.75C5.38783 21.75 5.18434 21.8349 5.03431 21.9859C4.88429 22.137 4.8 22.3419 4.8 22.5556C4.8 22.7692 4.88429 22.9741 5.03431 23.1252C5.18434 23.2762 5.38783 23.3611 5.6 23.3611C5.81217 23.3611 6.01566 23.2762 6.16569 23.1252C6.31571 22.9741 6.4 22.7692 6.4 22.5556C6.4 22.3419 6.31571 22.137 6.16569 21.9859C6.01566 21.8349 5.81217 21.75 5.6 21.75ZM8 21.75C7.78783 21.75 7.58434 21.8349 7.43431 21.9859C7.28429 22.137 7.2 22.3419 7.2 22.5556C7.2 22.7692 7.28429 22.9741 7.43431 23.1252C7.58434 23.2762 7.78783 23.3611 8 23.3611C8.21217 23.3611 8.41566 23.2762 8.56569 23.1252C8.71571 22.9741 8.8 22.7692 8.8 22.5556C8.8 22.3419 8.71571 22.137 8.56569 21.9859C8.41566 21.8349 8.21217 21.75 8 21.75ZM10.4 21.75C10.1878 21.75 9.98434 21.8349 9.83432 21.9859C9.68429 22.137 9.6 22.3419 9.6 22.5556C9.6 22.7692 9.68429 22.9741 9.83432 23.1252C9.98434 23.2762 10.1878 23.3611 10.4 23.3611C10.6122 23.3611 10.8157 23.2762 10.9657 23.1252C11.1157 22.9741 11.2 22.7692 11.2 22.5556C11.2 22.3419 11.1157 22.137 10.9657 21.9859C10.8157 21.8349 10.6122 21.75 10.4 21.75ZM13.6 21.75C13.3878 21.75 13.1843 21.8349 13.0343 21.9859C12.8843 22.137 12.8 22.3419 12.8 22.5556C12.8 22.7692 12.8843 22.9741 13.0343 23.1252C13.1843 23.2762 13.3878 23.3611 13.6 23.3611C13.8122 23.3611 14.0157 23.2762 14.1657 23.1252C14.3157 22.9741 14.4 22.7692 14.4 22.5556C14.4 22.3419 14.3157 22.137 14.1657 21.9859C14.0157 21.8349 13.8122 21.75 13.6 21.75ZM16 21.75C15.7878 21.75 15.5843 21.8349 15.4343 21.9859C15.2843 22.137 15.2 22.3419 15.2 22.5556C15.2 22.7692 15.2843 22.9741 15.4343 23.1252C15.5843 23.2762 15.7878 23.3611 16 23.3611C16.2122 23.3611 16.4157 23.2762 16.5657 23.1252C16.7157 22.9741 16.8 22.7692 16.8 22.5556C16.8 22.3419 16.7157 22.137 16.5657 21.9859C16.4157 21.8349 16.2122 21.75 16 21.75ZM18.4 21.75C18.1878 21.75 17.9843 21.8349 17.8343 21.9859C17.6843 22.137 17.6 22.3419 17.6 22.5556C17.6 22.7692 17.6843 22.9741 17.8343 23.1252C17.9843 23.2762 18.1878 23.3611 18.4 23.3611C18.6122 23.3611 18.8157 23.2762 18.9657 23.1252C19.1157 22.9741 19.2 22.7692 19.2 22.5556C19.2 22.3419 19.1157 22.137 18.9657 21.9859C18.8157 21.8349 18.6122 21.75 18.4 21.75ZM21.6 21.75C21.3878 21.75 21.1843 21.8349 21.0343 21.9859C20.8843 22.137 20.8 22.3419 20.8 22.5556C20.8 22.7692 20.8843 22.9741 21.0343 23.1252C21.1843 23.2762 21.3878 23.3611 21.6 23.3611C21.8122 23.3611 22.0157 23.2762 22.1657 23.1252C22.3157 22.9741 22.4 22.7692 22.4 22.5556C22.4 22.3419 22.3157 22.137 22.1657 21.9859C22.0157 21.8349 21.8122 21.75 21.6 21.75ZM24 21.75C23.7878 21.75 23.5843 21.8349 23.4343 21.9859C23.2843 22.137 23.2 22.3419 23.2 22.5556C23.2 22.7692 23.2843 22.9741 23.4343 23.1252C23.5843 23.2762 23.7878 23.3611 24 23.3611C24.2122 23.3611 24.4157 23.2762 24.5657 23.1252C24.7157 22.9741 24.8 22.7692 24.8 22.5556C24.8 22.3419 24.7157 22.137 24.5657 21.9859C24.4157 21.8349 24.2122 21.75 24 21.75ZM26.4 21.75C26.1878 21.75 25.9843 21.8349 25.8343 21.9859C25.6843 22.137 25.6 22.3419 25.6 22.5556C25.6 22.7692 25.6843 22.9741 25.8343 23.1252C25.9843 23.2762 26.1878 23.3611 26.4 23.3611C26.6122 23.3611 26.8157 23.2762 26.9657 23.1252C27.1157 22.9741 27.2 22.7692 27.2 22.5556C27.2 22.3419 27.1157 22.137 26.9657 21.9859C26.8157 21.8349 26.6122 21.75 26.4 21.75ZM29.6 21.75C29.3878 21.75 29.1843 21.8349 29.0343 21.9859C28.8843 22.137 28.8 22.3419 28.8 22.5556C28.8 22.7692 28.8843 22.9741 29.0343 23.1252C29.1843 23.2762 29.3878 23.3611 29.6 23.3611C29.8122 23.3611 30.0157 23.2762 30.1657 23.1252C30.3157 22.9741 30.4 22.7692 30.4 22.5556C30.4 22.3419 30.3157 22.137 30.1657 21.9859C30.0157 21.8349 29.8122 21.75 29.6 21.75ZM32 21.75C31.7878 21.75 31.5843 21.8349 31.4343 21.9859C31.2843 22.137 31.2 22.3419 31.2 22.5556C31.2 22.7692 31.2843 22.9741 31.4343 23.1252C31.5843 23.2762 31.7878 23.3611 32 23.3611C32.2122 23.3611 32.4157 23.2762 32.5657 23.1252C32.7157 22.9741 32.8 22.7692 32.8 22.5556C32.8 22.3419 32.7157 22.137 32.5657 21.9859C32.4157 21.8349 32.2122 21.75 32 21.75ZM34.4 21.75C34.1878 21.75 33.9843 21.8349 33.8343 21.9859C33.6843 22.137 33.6 22.3419 33.6 22.5556C33.6 22.7692 33.6843 22.9741 33.8343 23.1252C33.9843 23.2762 34.1878 23.3611 34.4 23.3611C34.6122 23.3611 34.8157 23.2762 34.9657 23.1252C35.1157 22.9741 35.2 22.7692 35.2 22.5556C35.2 22.3419 35.1157 22.137 34.9657 21.9859C34.8157 21.8349 34.6122 21.75 34.4 21.75Z" fill="#175574"/>
</svg>
