<svg width="16" height="13" viewBox="0 0 16 13" fill="none" xmlns="http://www.w3.org/2000/svg">
<path fill-rule="evenodd" clip-rule="evenodd" d="M13.1927 0.833329H2.69275H2.69275C1.45011 0.833329 0.442749 1.78473 0.442749 2.95833V10.0417C0.442749 11.2153 1.45011 12.1667 2.69275 12.1667H13.1927C14.4354 12.1667 15.4427 11.2153 15.4427 10.0417V2.95833C15.4427 1.78473 14.4354 0.833328 13.1927 0.833328V0.833329ZM12.6917 2.24999L7.94416 5.61458L3.19666 2.24999H12.6917ZM13.1927 10.75H2.69275C2.27854 10.75 1.94275 10.4329 1.94275 10.0417V3.13541L7.49275 7.06666C7.62257 7.15862 7.78047 7.20833 7.94275 7.20833C8.10503 7.20833 8.26293 7.15862 8.39275 7.06666L13.9427 3.13541V10.0417C13.9427 10.4329 13.607 10.75 13.1927 10.75Z" fill="white"/>
</svg>
