<svg width="45" height="45" viewBox="0 0 45 45" fill="none" xmlns="http://www.w3.org/2000/svg">
<path fill-rule="evenodd" clip-rule="evenodd" d="M18.75 7.49997C18.75 10.7271 17.6129 13.129 15.3402 15.6732L14.8 16.2608L13.6572 17.4413C11.0336 20.1377 9.375 24.3112 9.375 28.125C9.375 35.3737 15.2513 41.25 22.5 41.25C29.7487 41.25 35.625 35.3737 35.625 28.125C35.625 24.9154 33.5742 19.9441 31.4002 17.503C30.5572 16.5564 29.0373 16.7016 28.3889 17.7908L27.9082 18.5869L27.4616 19.2989L27.0574 19.9088C26.224 21.1228 25.6525 21.6506 25.1021 21.7088L25.0369 21.7106L25.1411 21.4586C27.1748 16.196 25.1878 9.41111 21.9508 6.17415C20.7696 4.99297 18.75 5.82953 18.75 7.49997ZM21.5494 12.825L21.595 12.9665C22.464 15.785 22.5028 19.1468 20.9464 21.4502C20.406 22.2501 20.5611 23.3295 21.305 23.9448L21.5832 24.1674C24.4421 26.3765 26.9859 25.9075 29.71 22.5041L30.0075 22.1175L30.1533 22.395C31.1237 24.3031 31.875 26.6245 31.875 28.125C31.875 33.3026 27.6777 37.5 22.5 37.5C17.3223 37.5 13.125 33.3026 13.125 28.125C13.125 25.278 14.4097 22.0453 16.3438 20.0575L17.1993 19.1787L17.5326 18.8289L18.1369 18.1714C19.5545 16.5845 20.6453 14.9841 21.3817 13.2468L21.5494 12.825Z" fill="white"/>
</svg>
