<svg width="18" height="14" viewBox="0 0 18 14" fill="none" xmlns="http://www.w3.org/2000/svg">
<path d="M4.06886 13.0781V6.52747L2.03731 4.66891L0.215576 3.63754V11.9221C0.215576 12.5617 0.733811 13.0781 1.37159 13.0781H4.06886Z" fill="#4285F4"/>
<path d="M13.3167 13.0781H16.0139C16.6536 13.0781 17.1699 12.5598 17.1699 11.9221V3.6376L15.1065 4.81892L13.3167 6.52747V13.0781Z" fill="#34A853"/>
<path d="M4.06879 6.52747L3.79236 3.96795L4.06879 1.51824L8.69271 4.98621L13.3166 1.51824L13.6259 3.8357L13.3166 6.52747L8.69271 9.99544L4.06879 6.52747Z" fill="#EA4335"/>
<path d="M13.3167 1.51824V6.52747L17.1699 3.63754V2.09621C17.1699 0.666677 15.5381 -0.148261 14.3956 0.709063L13.3167 1.51824Z" fill="#FBBC04"/>
<path d="M0.215576 3.63751L1.98777 4.96671L4.06886 6.52744V1.51821L2.98987 0.709032C1.84545 -0.148358 0.215576 0.666646 0.215576 2.09611V3.63744V3.63751Z" fill="#C5221F"/>
</svg>
