<svg width="53" height="53" viewBox="0 0 53 53" fill="none" xmlns="http://www.w3.org/2000/svg">
<path d="M27.573 0C21.3757 0 19.0686 1.21561 19.0686 4.45885C19.0867 5.22512 19.4386 5.94332 20.0283 6.41782C22.0446 7.75172 24.4717 8.28097 26.8461 7.90461C33.2544 6.9969 36.5914 8.51242 38.6936 10.2354C37.941 11.0222 37.365 11.9667 37.0056 13.0032C36.8838 13.4745 36.641 13.904 36.3022 14.2476C35.255 15.1728 33.878 14.7262 31.3709 13.8089C29.07 12.8288 26.615 12.2798 24.1233 12.1881C17.7435 12.1447 12.2567 16.7886 11.1175 23.1957C10.2398 22.654 9.23128 22.3733 8.20565 22.3852C5.56958 22.2421 3.31905 24.3071 3.17884 26.9975C3.17098 27.1489 3.17002 27.3004 3.17591 27.4518C3.25527 28.9328 4.06981 30.2701 5.33595 30.9981C7.13457 32.0291 9.30213 32.1419 11.1941 31.3028C12.8775 33.8313 16.3067 34.4312 17.5148 34.6529C17.6258 34.6736 17.7087 34.6783 17.7462 34.6864C18.214 34.8077 18.6891 34.8977 19.1685 34.956C20.1064 35.0916 21.8162 35.3437 21.8162 35.9355C21.8162 36.5274 21.3771 37.025 20.6581 37.7254C19.7746 38.3644 19.2047 39.3619 19.095 40.4613C19.095 43.6024 22.6524 43.9311 24.5546 44.1097C24.9661 44.134 25.3753 44.1905 25.7784 44.2789C28.532 44.9715 30.8665 46.828 32.1977 49.3838L32.4291 49.722C33.8068 51.6837 35.9904 52.8915 38.3528 52.9988C38.7221 53.0083 39.0907 52.9626 39.4469 52.8631C40.3944 52.6134 41.0508 51.7336 41.0349 50.735C40.9589 47.1517 39.1004 43.8546 36.1036 41.9865C34.5124 40.8945 32.7879 40.0201 30.9739 39.3861C32.3825 38.137 33.2993 36.4087 33.5544 34.522C33.6045 34.2269 33.6247 33.927 33.6529 33.6446C33.6654 33.5313 33.706 33.4165 33.7185 33.3064C33.7513 32.9061 33.7466 32.5247 33.7513 32.1578V31.8531C33.8461 28.4615 32.0165 25.3181 29.0529 23.7809C28.543 23.4896 28.3611 22.8315 28.6465 22.3109C28.6495 22.3053 28.6527 22.2997 28.656 22.294C28.9645 21.7715 29.6232 21.5924 30.1455 21.8888C35.6676 24.9997 37.4759 31.5323 34.5141 38.5405C34.8032 38.6888 35.0815 38.8484 35.3738 39.0191C40.3938 35.2645 43.3177 29.258 43.217 22.9066C44.4483 23.4301 45.7571 23.7385 47.0885 23.8191C49.1032 23.9626 51.6212 23.2576 52.3496 21.8265C53.5578 19.4703 52.8669 14.8981 52.0183 13.3156C50.263 9.93819 46.7202 7.93627 42.9842 8.21067C39.8425 2.92096 32.0072 0 27.573 0ZM4.5735 7.59996C3.98867 7.57704 3.49631 8.04229 3.47386 8.63919C3.4514 9.2361 3.90723 9.73864 4.49205 9.76155C4.51921 9.76268 4.54634 9.76268 4.57339 9.76155H15.3956C15.9804 9.73864 16.4363 9.2361 16.4138 8.63919C16.3925 8.07446 15.9489 7.62164 15.3956 7.59996H4.5735ZM2.81978 11.9233C2.23496 11.9003 1.74259 12.3656 1.72014 12.9625C1.69769 13.5594 2.15351 14.0619 2.73834 14.0849C2.76549 14.086 2.79262 14.086 2.81967 14.0849H10.2986C10.8834 14.1078 11.3758 13.6425 11.3983 13.0456C11.4207 12.4487 10.9649 11.9462 10.3801 11.9233C10.3529 11.9221 10.3258 11.9221 10.2987 11.9233H2.81978ZM48.2233 15.1648C49.1004 15.1648 49.8113 15.8905 49.8113 16.7856C49.8113 17.6808 49.1004 18.4064 48.2233 18.4064C47.3463 18.4064 46.6354 17.6808 46.6354 16.7856C46.6362 15.8909 47.3466 15.1657 48.2233 15.1648ZM1.10044 16.2465C0.515613 16.2236 0.0232483 16.6888 0.00079514 17.2857C-0.021658 17.8826 0.434167 18.3852 1.01899 18.4081C1.04615 18.4092 1.07328 18.4092 1.10044 18.4081H7.88389C8.46872 18.431 8.96108 17.9658 8.98353 17.3688C9.00599 16.7719 8.55016 16.2694 7.96534 16.2465C7.93818 16.2454 7.91105 16.2454 7.88389 16.2465H1.10044Z" fill="#A1C353"/>
</svg>
