<svg width="24" height="24" viewBox="0 0 24 24" fill="none" xmlns="http://www.w3.org/2000/svg">
<path d="M12.4859 0C9.67955 0 8.63486 0.550466 8.63486 2.0191C8.64305 2.36609 8.80238 2.69131 9.06942 2.90618C9.98248 3.51022 11.0815 3.74987 12.1567 3.57945C15.0586 3.16841 16.5697 3.85468 17.5216 4.63488C17.1808 4.9912 16.92 5.41886 16.7572 5.88825C16.7021 6.10166 16.5921 6.29616 16.4387 6.45172C15.9645 6.87072 15.341 6.66845 14.2057 6.25308C13.1638 5.80929 12.0521 5.56066 10.9237 5.51914C8.03481 5.49949 5.55018 7.60239 5.03436 10.5037C4.63687 10.2584 4.1802 10.1313 3.71576 10.1367C2.52207 10.0719 1.50297 11.007 1.43947 12.2253C1.43591 12.2938 1.43548 12.3625 1.43815 12.431C1.47408 13.1016 1.84293 13.7072 2.41628 14.0369C3.23075 14.5038 4.21229 14.5548 5.06902 14.1749C5.8313 15.3198 7.38416 15.5915 7.93124 15.6919C7.9815 15.7012 8.01902 15.7034 8.036 15.707C8.24785 15.762 8.46301 15.8027 8.68008 15.8291C9.10477 15.8905 9.87906 16.0047 9.87906 16.2727C9.87906 16.5407 9.6802 16.766 9.3546 17.0832C8.95454 17.3725 8.69648 17.8243 8.64681 18.3221C8.64681 19.7445 10.2577 19.8933 11.1191 19.9742C11.3054 19.9852 11.4907 20.0108 11.6732 20.0508C12.9202 20.3644 13.9773 21.2051 14.5801 22.3625L14.6849 22.5156C15.3088 23.4039 16.2975 23.9509 17.3673 23.9994C17.5345 24.0038 17.7014 23.9831 17.8627 23.938C18.2918 23.8249 18.589 23.4266 18.5818 22.9744C18.5474 21.3517 17.7059 19.8587 16.3488 19.0127C15.6283 18.5182 14.8473 18.1223 14.0259 17.8352C14.6638 17.2696 15.0789 16.487 15.1945 15.6326C15.2171 15.499 15.2263 15.3632 15.239 15.2353C15.2447 15.184 15.2631 15.132 15.2688 15.0822C15.2836 14.9009 15.2815 14.7282 15.2836 14.562V14.4241C15.3265 12.8882 14.498 11.4648 13.156 10.7687C12.9251 10.6368 12.8427 10.3388 12.972 10.1031C12.9734 10.1005 12.9748 10.098 12.9763 10.0954C13.116 9.85881 13.4143 9.77768 13.6508 9.91192C16.1514 11.3206 16.9702 14.2788 15.629 17.4523C15.76 17.5195 15.886 17.5917 16.0183 17.669C18.2915 15.9688 19.6156 13.2489 19.5699 10.3728C20.1275 10.6098 20.7202 10.7495 21.3231 10.786C22.2354 10.851 23.3756 10.5317 23.7055 9.88371C24.2526 8.81674 23.9397 6.74633 23.5554 6.02972C22.7606 4.50031 21.1563 3.59378 19.4645 3.71804C18.0419 1.3227 14.4938 0 12.4859 0ZM2.07102 3.44149C1.80619 3.43111 1.58323 3.64179 1.57307 3.91209C1.5629 4.18239 1.76931 4.40995 2.03414 4.42033C2.04643 4.42083 2.05872 4.42083 2.07097 4.42033H6.9716C7.23643 4.40995 7.44284 4.18239 7.43267 3.91209C7.42304 3.65636 7.22215 3.45131 6.9716 3.44149H2.07102ZM1.27688 5.39922C1.01206 5.38884 0.789099 5.59951 0.778931 5.86981C0.768764 6.14011 0.975175 6.36767 1.24 6.37805C1.2523 6.37856 1.26458 6.37856 1.27683 6.37805H4.66352C4.92835 6.38843 5.15131 6.17775 5.16147 5.90745C5.17164 5.63716 4.96523 5.40959 4.7004 5.39922C4.6881 5.39871 4.67582 5.39871 4.66357 5.39922H1.27688ZM21.837 6.8671C22.2341 6.8671 22.5561 7.19569 22.5561 7.60104C22.5561 8.00639 22.2341 8.33498 21.837 8.33498C21.4398 8.33498 21.1179 8.00639 21.1179 7.60104C21.1183 7.1959 21.44 6.8675 21.837 6.8671ZM0.498311 7.3569C0.233485 7.34652 0.0105275 7.5572 0.000360063 7.8275C-0.00980742 8.09779 0.196604 8.32536 0.46143 8.33573C0.473728 8.33624 0.486014 8.33624 0.498311 8.33573H3.57006C3.83489 8.34611 4.05785 8.13544 4.06802 7.86514C4.07818 7.59484 3.87177 7.36728 3.60695 7.3569C3.59465 7.35639 3.58236 7.35639 3.57006 7.3569H0.498311Z" fill="#268EC2"/>
</svg>
