<svg width="32" height="32" viewBox="0 0 32 32" fill="none" xmlns="http://www.w3.org/2000/svg">
<path opacity="0.35" d="M10.8412 30.0792C9.341 30.0792 8.12052 28.8587 8.12052 27.3583C8.12052 27.2271 8.13204 27.0949 8.15476 26.964C8.1618 26.9077 8.1714 26.852 8.18324 26.7973L8.44436 25.5992H5.93812C4.44436 25.5992 3.229 24.3864 3.229 22.8959C3.229 22.7656 3.24052 22.6338 3.26324 22.5026C3.2706 22.444 3.28084 22.3861 3.29364 22.3288L6.997 5.32402C7.01684 5.23442 7.04116 5.15058 7.06964 5.07026C7.43316 3.94866 8.4562 3.19922 9.63316 3.19922H18.0789C20.6076 3.19922 23.5807 4.5621 24.7148 7.52626C26.3192 7.87922 27.7384 8.72722 28.7144 9.94098C29.6421 11.0943 30.6104 13.1144 29.9544 16.1883C28.9816 20.7391 25.2386 23.6792 20.4191 23.6792H19.004L18.0924 27.9179C18.0658 28.0399 18.0293 28.157 17.9832 28.2696C17.6364 29.2443 16.7765 29.933 15.7538 30.0543C15.6485 30.0709 15.542 30.0792 15.4357 30.0792H10.8412Z" fill="black"/>
<path d="M10.2015 29.4405C8.70136 29.4405 7.48088 28.2201 7.48088 26.7196C7.48088 26.5884 7.4924 26.4562 7.51512 26.3253C7.52216 26.269 7.53176 26.2133 7.5436 26.1586L7.80472 24.9605H5.29848C3.80472 24.9605 2.58936 23.7477 2.58936 22.2572C2.58936 22.1269 2.60088 21.9951 2.6236 21.8639C2.63096 21.8053 2.6412 21.7474 2.654 21.6901L6.35736 4.68535C6.3772 4.59575 6.40152 4.51191 6.43 4.43159C6.79352 3.30999 7.81656 2.56055 8.99352 2.56055H17.4393C19.9679 2.56055 22.941 3.92343 24.0751 6.88759C25.6796 7.24055 27.0988 8.08855 28.0748 9.30231C29.0025 10.4556 29.9708 12.4757 29.3148 15.5497C28.342 20.1004 24.599 23.0405 19.7794 23.0405H18.3644L17.4527 27.2793C17.4262 27.4012 17.3897 27.5183 17.3436 27.6309C16.9967 28.6057 16.1369 29.2943 15.1142 29.4156C15.0089 29.4322 14.9023 29.4405 14.7961 29.4405H10.2015Z" fill="#F2F2F2"/>
<path d="M14.4593 9.70526L22.3845 9.55294C22.3963 9.54014 22.4382 9.10047 22.4501 9.08799C22.252 6.04927 19.6952 4.64062 17.4389 4.64062H8.99311C8.69487 4.64062 8.45711 4.85119 8.39247 5.12927L8.38927 5.12799L4.68527 22.1347L4.69359 22.1353C4.68463 22.1757 4.66895 22.2141 4.66895 22.2573C4.66895 22.6051 4.95023 22.8806 5.29807 22.8806H10.8459L12.1973 16.6406C12.1973 16.6406 14.1633 9.70526 14.4593 9.70526Z" fill="#2785BD"/>
<path d="M22.4293 8.77734C22.4633 9.3399 22.4261 9.95174 22.2821 10.6279C21.4597 14.4772 18.4863 16.4807 14.8114 16.4807C14.8114 16.4807 13.2636 15.5649 12.725 15.5649C12.3922 15.5649 12.2892 16.2186 12.2178 16.5588L10.846 22.9793L9.57719 26.5946L9.58551 26.5953C9.57655 26.6362 9.56055 26.6753 9.56055 26.7197C9.56055 27.074 9.84695 27.3607 10.2015 27.3607H14.7961L14.8044 27.3543C15.1055 27.3498 15.3449 27.1348 15.4073 26.8516L15.4188 26.842L16.5746 21.473C16.5746 21.473 16.6549 20.9607 17.1935 20.9607C17.7321 20.9607 19.7791 20.9607 19.7791 20.9607C23.454 20.9607 26.4578 18.9665 27.2809 15.1162C28.2066 10.7754 25.1103 8.79334 22.4293 8.77734Z" fill="#70BFFF"/>
<path d="M22.2885 10.724C21.1189 17.4152 12.2075 16.9883 12.2241 16.4699C12.2389 16.0078 13.6241 9.73455 13.6241 9.73455L13.627 9.73583C13.6897 9.46895 13.9173 9.27279 14.2021 9.27279H22.4206C22.4273 9.26543 22.4328 9.25967 22.4382 9.25391C22.443 9.70863 22.3806 10.1963 22.2885 10.724Z" fill="#2B59A1"/>
<path d="M14.7957 27.8402H10.2011C9.5832 27.8402 9.08049 27.3374 9.08049 26.7192C9.08049 26.6574 9.08881 26.6043 9.0984 26.5627C9.10001 26.539 9.1032 26.5157 9.108 26.4923L9.79057 23.3602H5.29808C4.68656 23.3602 4.18896 22.8651 4.18896 22.2568C4.18896 22.195 4.1976 22.1419 4.2072 22.1003C4.20848 22.0776 4.21168 22.0546 4.21648 22.0322L7.92049 5.02544C7.92657 4.99888 7.93424 4.97296 7.94416 4.94832C8.08528 4.4808 8.50672 4.16016 8.99312 4.16016H17.4389C19.7147 4.16016 22.2718 5.46416 22.828 8.31184C24.4274 8.42416 25.901 9.15216 26.8277 10.3045C27.5381 11.1877 28.2744 12.7566 27.7499 15.2162C26.9288 19.0552 23.8744 21.4402 19.7787 21.4402H17.1934C17.1086 21.4402 17.06 21.476 17.0488 21.5467L15.8878 26.9422C15.8795 26.981 15.8667 27.0178 15.8494 27.053C15.7131 27.4853 15.3362 27.7915 14.8894 27.8299C14.8584 27.8366 14.8267 27.8402 14.7957 27.8402ZM10.0424 26.7448C10.0549 26.8213 10.1211 26.8802 10.2011 26.8802H14.7307C14.7528 26.8763 14.7749 26.8741 14.7966 26.8738C14.8811 26.8725 14.9256 26.805 14.9381 26.7474C14.9448 26.7173 14.9544 26.6878 14.9666 26.66L16.1051 21.3714C16.1502 21.0805 16.4427 20.4802 17.1931 20.4802H19.7784C23.4504 20.4802 26.0792 18.4373 26.811 15.0155C27.164 13.3611 26.9109 11.94 26.0795 10.9058C25.3246 9.9672 24.1141 9.37104 22.7899 9.27152C22.709 9.3608 22.5947 9.42 22.4651 9.42832C22.203 9.44368 21.9797 9.25168 21.956 8.9928C21.7144 6.332 19.4453 5.12016 17.4389 5.12016H8.99312C8.91504 5.12016 8.87248 5.18352 8.86 5.2376C8.85616 5.25392 8.85169 5.26992 8.84624 5.28528L5.17297 22.1522C5.17201 22.1803 5.16881 22.2088 5.16273 22.237C5.15921 22.2526 5.15569 22.268 5.15153 22.2834C5.16401 22.3506 5.22352 22.4002 5.29808 22.4002H10.3864C10.5317 22.4002 10.6693 22.4658 10.7602 22.579C10.8514 22.6923 10.8866 22.8405 10.8555 22.9826L10.0648 26.6114C10.0638 26.6408 10.0603 26.6702 10.0542 26.699L10.0424 26.7448Z" fill="#40396E"/>
</svg>
