<svg width="43" height="71" viewBox="0 0 43 71" fill="none" xmlns="http://www.w3.org/2000/svg">
<path d="M20.19 5.41581L18.5489 13.0983L25.3482 17.0331L17.5346 17.8463L15.8934 25.5287L12.7055 18.3489L4.89193 19.1621L10.7353 13.9115L7.54734 6.73159L14.3466 10.6664L20.19 5.41581Z" fill="#A1C353"/>
<path d="M31.4019 28.1226L32.5559 35.8931L40.3027 37.1969L33.2691 40.6956L34.423 48.4662L28.922 42.8579L21.8884 46.3567L25.5222 39.3919L20.0212 33.7836L27.768 35.0874L31.4019 28.1226Z" fill="#268EC2"/>
<path d="M29.9294 55.507L27.5336 59.924L30.9941 63.5675L26.0529 62.6539L23.6571 67.0709L22.9991 62.0893L18.0579 61.1756L22.5924 59.0104L21.9344 54.0287L25.3949 57.6722L29.9294 55.507Z" fill="#FFBB38"/>
<path d="M34.4732 10.6166L35.2113 15.587L40.1666 16.4209L35.6675 18.6589L36.4056 23.6293L32.8869 20.042L28.3879 22.28L30.7122 17.8249L27.1935 14.2377L32.1488 15.0716L34.4732 10.6166Z" fill="#E95C7B"/>
</svg>
